<?xml version="1.0" encoding="utf-8"?>
<!-- Generator: Adobe Illustrator 21.1.0, SVG Export Plug-In . SVG Version: 6.00 Build 0)  -->
<svg version="1.1" id="Capa_1" xmlns="http://www.w3.org/2000/svg" xmlns:xlink="http://www.w3.org/1999/xlink" x="0px" y="0px"
	 viewBox="0 0 99 99" style="enable-background:new 0 0 99 99;" xml:space="preserve">
<path d="M49.5,0C22.1,0,0,22.1,0,49.5C0,76.9,22.1,99,49.5,99c9.6,0,19-2.8,27-8c2.4-1.6,2.9-4.8,1.1-7.1l-2-2.5
	c-1.5-1.9-4.2-2.3-6.3-1c-5.9,3.8-12.8,5.8-19.8,5.8c-20.3,0-36.7-16.5-36.7-36.7s16.5-36.7,36.7-36.7c20,0,36.7,11.5,36.7,31.9
	c0,7.7-4.2,15.9-11.6,16.7c-3.5-0.1-3.4-2.6-2.7-6l4.7-24.2c0.6-3-1.7-5.7-4.7-5.7h-9c-1.4,0-2.5,1-2.7,2.4l0,0
	c-2.9-3.6-8.1-4.3-12-4.3c-14.9,0-27.5,12.4-27.5,30.2c0,13,7.3,21.1,19.2,21.1c5.4,0,11.5-3.1,15-7.7c1.9,6.8,8.1,6.8,14.1,6.8
	c21.7,0,30-14.3,30-29.4C99,17.5,77.1,0,49.5,0z M45.2,60.8c-4.4,0-7.2-3.1-7.2-8.1c0-9,6.1-14.5,11.7-14.5c4.4,0,7.1,3,7.1,8.1
	C56.8,55.2,50,60.8,45.2,60.8L45.2,60.8z"/>
</svg>
